/* XPM */
static char *_94ae2bf9fa84fc8af5a895ad138f52c[] = {
/* columns rows colors chars-per-pixel */
"31 51 84 1 ",
"  c None",
". c #170F07",
"X c #0B1707",
"o c #1F170B",
"O c #131313",
"+ c #1B1B1B",
"@ c #2F1B0B",
"# c #372313",
"$ c #3F2B1B",
"% c #232323",
"& c #272727",
"* c #2F2F2F",
"= c gray23",
"- c #530707",
"; c #731313",
": c #771717",
"> c #473323",
", c #4F3B2B",
"< c #533F2F",
"1 c #5F4323",
"2 c #574333",
"3 c #5F4B37",
"4 c #6B4727",
"5 c #67533F",
"6 c #4B4B4B",
"7 c gray31",
"8 c gray34",
"9 c #6F5743",
"0 c #775F4B",
"q c #676B4F",
"w c #7B634F",
"e c gray39",
"r c gray42",
"t c #8B0000",
"y c #9B0000",
"u c #A70000",
"i c #B30000",
"p c #BF0000",
"a c #9B3333",
"s c #A33B3B",
"d c #A73F3F",
"f c #CB0000",
"g c #D70000",
"h c #FF1F1F",
"j c #FF3F3F",
"k c #BB5757",
"l c #BF5B5B",
"z c #836B57",
"x c #937B63",
"c c #A76B6B",
"v c #FF5F5F",
"b c #C76363",
"n c #CB6B6B",
"m c #D37373",
"M c #DB7B7B",
"N c #FF7B7B",
"B c #9F876F",
"V c #A78F77",
"C c #AF977F",
"Z c #F7AB7B",
"A c #9F9F9F",
"S c #B79F87",
"D c #BFA78F",
"F c #A7A7A7",
"G c #B7B7B7",
"H c #DF8787",
"J c #E78F8F",
"K c #EB9797",
"L c #FFBF9B",
"P c #F3A3A3",
"I c #F7ABAB",
"U c #FFC7A7",
"Y c #FFCFB3",
"T c #FFD3BB",
"R c #FFD7BB",
"E c gray78",
"W c #DFDFDF",
"Q c #FFDBC7",
"! c #FFE3D3",
"~ c #FFEBDB",
"^ c #FFEBDF",
"/ c #FFFFD7",
"( c #E7E7E7",
") c white",
/* pixels */
"                               ",
"                               ",
"                               ",
"                               ",
"                               ",
"               u               ",
"              tu               ",
"             yyuu              ",
"            tyuiuy             ",
"            yyisiuyy           ",
"           yyudbsuy            ",
"          yyyilKlpuy           ",
"           yusmLMsiu           ",
"          yysMQTPnppy          ",
"         yyybL~!YKdpuy         ",
"       yyyyiJT~~!Ylpuy         ",
"        yuilQ~//~!UMfiyy       ",
"      yyupvZ~/)///~Yvfuy       ",
"      yyijKT//)))/~QMfu        ",
"     yupfPQ/)))))))/YNfp       ",
"     ifgv~/)))))))))QLjpiy     ",
"    upgjM~/)))))))))/Yvgp      ",
"    pfhvP~/))^TIY!/)/QMjfp     ",
"    pfjJY/)))Tz29D^)//Kvhpi    ",
"   upgvL!)))WC>@$cT^//LMjfpu   ",
"   ipgvL)))^D4#.o$VT//YJvgpi   ",
"   ipgvI))^I3:-@..$CT~/Pvhfi   ",
"   ipfvP))Q2>:a;$o.>D~/PMhf    ",
"    ipjJ))D,$sl1>@oOP!/Lvgp    ",
"    yphM/WD<<kn2,#oODT~Pvgpu   ",
"    igvJRE0>3MM3<,&&3DQMjfpi   ",
"   yupjHUD<>5Jm5<3..<SUvhfy    ",
"   yyufvPw*>BPD929..$BKvjfy    ",
"    tyijK0&6VQD000OO+5mjgpyy   ",
"     yypHx&qG~Gee=eXO>ngppyy   ",
"     tyu50=eD/Drr=7AX%bppy     ",
"      yye7=7=+8r88=+rXOpyy     ",
"     yyuA+8Ar=+88Fr=+r+py      ",
"       =r=+OOOO=r=OOOO+y       ",
"       r8%OOOOOOOOOOOO%O       ",
"       F=+O8F(FFFr=%OO+O       ",
"       F%+=FEErrrrr=+OO+       ",
"      =r+8rF8888888=+OO%X      ",
"      r=+8=rEEEEEFF8%OO%X      ",
"      =%X=FEr=====8Fr%O+O      ",
"      =X=F8===***===+8OO+      ",
"     X%Xr++++++++++**+8O%O     ",
"     =+r+*++XOOOOOX++%++%O     ",
"     =X+*=+OO%%%%+OX+%*%+O     ",
"     %r%=*OO*rrrr*+OO=*=+O     ",
"     O%===XO%===%%+OO%=*%O     "
};
