/* XPM */
static char *bdf554eb2a9547b0e8c33b7bba337baf[] = {
/* columns rows colors chars-per-pixel */
"74 85 44 1 ",
"  c None",
". c #070707",
"X c #170F07",
"o c #0B1707",
"O c #1F170B",
"+ c #131313",
"@ c #1B1B1B",
"# c #2B230F",
"$ c #332B13",
"% c #3F2F17",
"& c #272727",
"* c #2F2F2F",
"= c gray23",
"- c #43331B",
"; c #4B371B",
": c #533F1F",
"> c #5F4323",
", c #5B472B",
"< c #6B4727",
"1 c #774F2B",
"2 c #7F532F",
"3 c gray34",
"4 c gray42",
"5 c #875733",
"6 c #8F5F37",
"7 c #9B633B",
"8 c #A36B3F",
"9 c #AB6F43",
"0 c #B37347",
"q c #BF7B4B",
"w c #CB7F4F",
"e c #CF8353",
"r c #D78B5B",
"t c #DF9363",
"y c #E79B6B",
"u c #EFA373",
"i c #F7AB7B",
"p c #A7A7A7",
"a c #FFB383",
"s c #FFBB93",
"d c #FFC79B",
"f c gray78",
"g c #E7E7E7",
"h c white",
/* pixels */
"                                                  4=o                     ",
"                                                  =++                     ",
"                                                 =++++                    ",
"                                                =4=+&o+                   ",
"                                               +=4g43&++                  ",
"                                               o=pg43=&+                  ",
"                                               @3fg43=&+                  ",
"                                              =@4gg433==+                 ",
"                                              o=4gf434++=                 ",
"                                             =o=pgf434+++                 ",
"                                             4@3phf444++++                ",
"                                             p@4fhf44=4o+@                ",
"                                            =4=4fhf44=3po@                ",
"                                            43=3=@3433=@4o+               ",
"                                            p@3p4=@33p4=@4@               ",
"                                           =4=@++++=4=++++@               ",
"                                           43&++++++++++++&+              ",
"                                           p=@+3pgppp4=&++@+              ",
"                                           p&@=pff44444=@++@              ",
"                                          =4@34p3333333=@++&o             ",
"                                          4=@3=4fffffpp3&++&o             ",
"                                          =&o=pf4=====3p4&+@+             ",
"                                          =o=p3===***===@3++@             ",
"                                         o&o4@@@@@@@@@@**@3+&+            ",
"                                         =@4@*@@o+++++o@@&@@&+            ",
"                                         =o@*=@++&&&&@+o@&*&@+            ",
"                                         &4&=*++*4444*@++=*=@+            ",
"                                         +&===o+&===&&@++&=*&+            ",
"                                         +&===o+&&&&&&@++&==*+            ",
"                                         o====o&44433=&++@===o            ",
"                                         o=*=*+pgggpp3=o+@=*=@            ",
"                                        +&****+ggggpp3=o+@***&+           ",
"                                        +*&*&*+pppppp3=o+@&*&*+           ",
"                                        +&&&&&o=4443==o++@&&&&o           ",
"                                       O+@&@&@o++++++++++@&@&@o           ",
"                                     #%O+@@@@@o++++++++++@@@@@o           ",
"                                    #--%+@@@@@o+++++++++o@@@@@o           ",
"                                  #%,,1##o&&&&o+++++++++o&&&&&o           ",
"                                #%-,222-$@&&&&o+@@@@@@@+o&&&&&o           ",
"                              O#--,2662--o====o+@@@@@@@+o=====+           ",
"                             O#%-,,2666--+4444o@@@@@@@@@o44444+O####      ",
"                             O#%,,12686,-+4ppp=@&&&&&&&@=ppp4o2865;::     ",
"                            OO#%:,266862-#4ppp4&&&&&&&&&4ppp4+88881,,:    ",
"                            O###:,126882-#=pgg4&=======&4ggp=,0000962<    ",
"                            O##%:,126885,,#@@@o=========o@@@,6rttywq96:   ",
"                            O##$:,1266855,$+++X=4444444=O++,60tyyttwq76:  ",
"                           OO%%$::12566682,###X4ppppppp4+O%5qqtuuuue07<:  ",
"                          OOO###-:,52568962$###4ggggggg4+O:0tyiiiiyr9711  ",
"                         OOOO###-:,12568009,,--=pgggggp=+:5eiaaaaiyr76<:- ",
"                         OOOO###-:,1226888886,,,@@@@@@@:%,8eaassaaur75<<, ",
"                         O:OOO###-:,12269890r9,%++++++++%,9essssaaaq62>;,:",
"                        O%:OOOO###--,1256686qyr:%OOOOO%%:,9rsssaaay051;;,-",
"                        O##OOOO##$$-,168666899qq096,,,,,,69raaaauyr91>;%,%",
"                        OOOOOOOO##$-$,2166668968q966666669eruauuyre81;;%,$",
"                         OOOOOO##-$--,1666669989900980089wrryyyyreq0<##.;#",
"                         OOOOO#,,--$$-21266689q0088609978errrrtrre905OO#:$",
"                        ###OOO#,,,-#$$:58qqqttertrq09000qryyttrqq0971OOX:$",
"                       O#%#OOO#,,,,-%-,2200tqqqruuyt090weettreq00992<XXO:$",
"                       O#OXXXX$;226<<::257877860ttryrw0rwweeww0q9997;XXX%O",
"                       OOXXXXX$;57000q8er7222<><27qrtwyteweqqq999981>XXX% ",
"                        OOOOOO#-,90trrtyurtqr011<128qisaytw68899965>;X.X$ ",
"                        OOOOOXXX$>57678tiyutuyrq75129yaditq66666665>%X.X$ ",
"                         OOXX...$OOO$-<12258rtaue87220yist75688666>%OX.X# ",
"                         OOXX..O%$#O>>;<<<<2278etr072<7qir85700652;OX...# ",
"                        OOOOO::57870errre9111117wqte016707958q8,,%XX..X.  ",
"                       OXXX$$%>>160wtyuuytte861560ete6X>>7900t8:%OXX..XX  ",
"                      X........#%%;<1117wuyyre8615rii0;#;<96rq5;#XX..XX   ",
"                    .XX.........#......X%1869qq769quti:#><75t0,;OOX.XXX   ",
"                   ......................X%;>1269880qq5;;%<8y91>..XXXX    ",
"                   ....XX%;%;;%;;#;%.....XXX#>>2q00qrr8;%O;592>;..XXX     ",
"                   ...XO%;%;><291511>%.....XXOO%50qqyr0;OXX>61;%..XX      ",
"                   ..;%#;;><1er9575776<>....X##%;>7qyiq>%XX%2>%%..X       ",
"                    >;>15<28erqq75009725<%....#%##%10it>>OXO<%%...X       ",
"                   1<<2665erqweeqqqq5qqq0q1O....#OO;2qq6>#OXO%#...X       ",
"                  <111118qweewewqqw655erwe62.....OO;;8q6>#XXX%#...X       ",
"                  ;>><2578990eew8676657qerer7%#....;;182<XX.X#...XX       ",
"                 ;>><6678990qqewq07528wwrrw9;>......;;>>;X.......XX       ",
"               1;:167709000wqqewer8599werrq91%XXX....%>%%.......XX        ",
"              ;;<17q8qee900e67wqqr7578werew5;#X.XX...;;%#X....X           ",
"             ;<127590qrq900w00q0777799qrewe81#XXXO....;%%X...             ",
"           %>;12555q90rr9q9qw99856789qwwqw05;O#X.O..........              ",
"         ;;;:7625qqrq0reeqq0215876210qwq008>;;XXXX;........               ",
"      1><>><26q5qrreq0e8860855666712rqqq9976;%XXX;.........               ",
"   1;r57r76606q9reqqq0q77682522577erw009561>%%###;........                ",
"175>>17rq666wq0ererrq00q52<7511599we0971<75;#%%%;;.....XXX                "
};
