/* XPM */
static char *cc972bfb49974b20f654d136407903a7[] = {
/* columns rows colors chars-per-pixel */
"64 64 239 2 ",
"   c #542700",
".  c #4E380D",
"X  c #63380B",
"o  c #794A16",
"O  c #7C511B",
"+  c #614A18",
"@  c #7A5324",
"#  c #6D532B",
"$  c #7E6230",
"%  c #82521A",
"&  c #865B24",
"*  c #8E5F33",
"=  c #84622C",
"-  c #94662C",
";  c #876738",
":  c #966939",
">  c #9A723B",
",  c #97753E",
"<  c #A16F33",
"1  c #A67738",
"2  c #B27D3C",
"3  c #8A7445",
"4  c #9C7A43",
"5  c #997649",
"6  c #887654",
"7  c #997A56",
"8  c #8A6B46",
"9  c #AC7E46",
"0  c #A47D4C",
"q  c #A57A46",
"w  c #A27F53",
"e  c #997E61",
"r  c #9C8458",
"t  c #8F825F",
"y  c #AC8244",
"u  c #AB844B",
"i  c #A6824A",
"p  c #B48445",
"a  c #B98544",
"s  c #BD8A4B",
"d  c #B6884A",
"f  c #AD8B54",
"g  c #AB8C5B",
"h  c #A68657",
"j  c #B28B55",
"k  c #BC8D51",
"l  c #B48D5B",
"z  c #B48857",
"x  c #B5945D",
"c  c #BD945D",
"v  c #BA9556",
"b  c #9D8668",
"n  c #A98B66",
"m  c #B38C63",
"M  c #BA9663",
"N  c #B59A66",
"B  c #BC9B64",
"V  c #B6976B",
"C  c #AD977B",
"Z  c #A99773",
"A  c #B89C76",
"S  c #AE9463",
"D  c #BEA16B",
"F  c #BCA272",
"G  c #BAA07C",
"H  c #B9A67C",
"J  c #C38C45",
"K  c #C38E4A",
"L  c #C5914D",
"P  c #CA914A",
"I  c #C18F52",
"U  c #C18F5A",
"Y  c #C69353",
"T  c #CA9553",
"R  c #CD9956",
"E  c #C3955B",
"W  c #C49B5C",
"Q  c #CC9D5D",
"!  c #D19B56",
"~  c #D29D5A",
"^  c #CAA15E",
"/  c #D9A35C",
"(  c #C49B62",
")  c #CC9D62",
"_  c #C39D6C",
"`  c #C69565",
"'  c #D09F63",
"]  c #C39C74",
"[  c #CCA365",
"{  c #C4A36C",
"}  c #CBA46C",
"|  c #CDA96C",
" . c #C6A466",
".. c #D3A363",
"X. c #D4A56A",
"o. c #D8A76D",
"O. c #D4AA6C",
"+. c #DCAC6C",
"@. c #D9A764",
"#. c #C5A572",
"$. c #CBA675",
"%. c #C5AA76",
"&. c #CCAB74",
"*. c #C4A47B",
"=. c #C6AC7B",
"-. c #CDAD7A",
";. c #D4AC73",
":. c #DAAE73",
">. c #D2AE7A",
",. c #D4A974",
"<. c #CAB27A",
"1. c #D4B275",
"2. c #DBB275",
"3. c #D4B37C",
"4. c #DAB57B",
"5. c #DDBA7D",
"6. c #D7B97D",
"7. c #DCB06F",
"8. c #E1AC6A",
"9. c #E3AD67",
"0. c #E4B26E",
"q. c #E3B374",
"w. c #E3B57A",
"e. c #E2BA7C",
"r. c #EBBA7A",
"t. c #E6C17F",
"y. c #BBA78C",
"u. c #C2AB84",
"i. c #C5A785",
"p. c #D4AE8C",
"a. c #CCB483",
"s. c #C9B489",
"d. c #D4B583",
"f. c #DBB681",
"g. c #D4BA84",
"h. c #DBBB84",
"j. c #D4BC8C",
"k. c #DABC8B",
"l. c #D2B589",
"z. c #C4AD92",
"x. c #CBB697",
"c. c #D4BC92",
"v. c #DCBD93",
"b. c #D7BE9B",
"n. c #E4BD83",
"m. c #EBBD83",
"M. c #E2BE8A",
"N. c #E1B493",
"B. c #D3BDA3",
"V. c #CBBCA5",
"C. c #DEC28D",
"Z. c #D5C18E",
"A. c #DCC493",
"S. c #DDC59A",
"D. c #DDCB9B",
"F. c #D8C597",
"G. c #E5C284",
"H. c #ECC384",
"J. c #E4C48C",
"K. c #EBC58C",
"L. c #E7C88F",
"P. c #ECC98D",
"I. c #EBC886",
"U. c #F1CB8E",
"Y. c #F7C789",
"T. c #E4C692",
"R. c #E5CA95",
"E. c #EBCB94",
"W. c #ECCE9B",
"Q. c #E2C99C",
"!. c #F4CC93",
"~. c #F5CF98",
"^. c #EDD19B",
"/. c #E4D09E",
"(. c #F2D195",
"). c #F3D49C",
"_. c #FAD29C",
"`. c #FFD596",
"'. c #D8C6A6",
"]. c #DED2A9",
"[. c #DDCCB4",
"{. c #DCCBBC",
"}. c #E3CDA3",
"|. c #E4CDAB",
" X c #E6C8A4",
".X c #ECD3A2",
"XX c #E7D4AD",
"oX c #ECD5AC",
"OX c #E9D6A8",
"+X c #FCD5A3",
"@X c #FBDAA3",
"#X c #F3DBAA",
"$X c #FDDDA9",
"%X c #F4D7A5",
"&X c #E2CCB3",
"*X c #E4D3B4",
"=X c #EADBB5",
"-X c #E2D4BC",
";X c #EBDBBC",
":X c #E7D8B7",
">X c #F3DCBA",
",X c #F0CEA0",
"<X c #FCE4AD",
"1X c #F9E6B8",
"2X c #F7EABB",
"3X c #E3D5C2",
"4X c #E5DAC2",
"5X c #EBDCC5",
"6X c #E9DCC9",
"7X c #F1DEC2",
"8X c #F4DEC6",
"9X c #EDE3C8",
"0X c #F3E3C3",
"qX c #F6E9C4",
"wX c #FDEBC5",
"eX c #F5E5CC",
"rX c #FAE8CA",
"tX c #FFF3CA",
"yX c #FFF2C4",
"uX c #ECE5D3",
"iX c #F3E5D3",
"pX c #F5EBD3",
"aX c #FBEBD5",
"sX c #FBEEDD",
"dX c #F5EADC",
"fX c #FFFDD6",
"gX c #F6F2DC",
"hX c #FDF3DA",
"jX c #FFFCDB",
"kX c #FAF0D2",
"lX c #F8EDE0",
"zX c #F6F2E4",
"xX c #FEF4E3",
"cX c #FFFBE5",
"vX c #FEF6EA",
"bX c #FFFBEC",
"nX c #F7F5E9",
"mX c #FFFEF4",
"MX c #FEFEFE",
/* pixels */
"MXMXMXMXMXMXMXMXMXMXMXMXMXMXMXMXMXMXMXMXMXMXMXMXMXMXMXMXMXMXMXMXMXMXMXMXMXMXMXMXMXMXMXMXMXMXMXMXMXMXMXMXMXMXMXMXMXMXMXMXMXMXMXMX",
"MXMXMXMXMXMXMXMXMXMXMXMXMXMXMXMXMXMXMXMXMXMXMXMXMXMXMXMXMXMXMXmXmXMXMXMXMXMXMXMXMXMXMXMXMXMXMXMXMXMXMXMXMXMXMXMXMXMXMXMXMXMXMXMX",
"MXMXMXMXMXMXMXMXMXMXMXMXMXMXMXMXMXMXMXMXMXMXMXMXMXMXMXMXMXMXmXmXmXmXMXMXMXMXMXMXMXMXMXMXMXMXMXMXMXMXMXMXMXMXMXMXMXMXMXMXMXMXMXMX",
"MXMXMXMXMXMXMXMXMXMXMXMXMXMXMXMXMXMXMXMXMXMXMXMXzXlXmXmXmXnX4X[.[.-X4XnXmXmXMXmXmXmXMXMXMXMXMXMXMXMXMXMXMXMXMXMXMXMXMXMXMXMXMXMX",
"MXMXMXMXMXMXMXMXMXMXMXMXMXMXMXMXMXMXMXMXMXMXMXmX4X*X].9XaX=Xc.H 6 6 *XpXbXmXcXuXuXzXmXMXMXMXMXMXMXMXMXMXMXMXMXMXMXMXMXMXMXMXMXMX",
"MXMXMXMXMXMXMXMXMXMXMXMXMXMXMXMXMXMXMXMXMXMXMXmX;X1X#XZ.l.S.Z.F 8 # l.1X;X9X;X0X3XlXMXMXMXMXMXMXMXMXMXMXMXMXMXMXMXMXMXMXMXMXMXMX",
"MXMXMXMXMXMXMXMXMXMXMXMXMXMXMXMXMXMXMXMXMXMXMXmXiX&X#XL.C.3.3.6.a.g.d.l.T..X#XXX3XmXmXMXMXMXMXMXMXMXMXMXMXMXMXMXMXMXMXMXMXMXMXMX",
"MXMXMXMXMXMXMXMXMXMXMXMXMXMXMXMXMXMXMXMXMXMXmXmXcXoX).5.2.5.t.C.G.G.L.L.E.E._..XaXmXMXMXMXMXMXMXMXMXMXMXMXMXMXMXMXMXMXMXMXMXMXMX",
"MXMXMXMXMXMXMXMXMXMXMXMXMXMXMXMXMXMXMXMXMXmXmXaXoXC.2.E ^ [ @.Q O.t.G.G.e.e.H.%XhXmXmXMXMXMXMXMXMXMXMXMXMXMXMXMXMXMXMXMXMXMXMXMX",
"MXMXMXMXMXMXMXMXMXMXMXMXMXMXMXMXMXMXMXmXMXvX5X}.v.4.) d p [ X.z i ( 1.X.9 E [ 5.|.eXmXmXMXMXMXMXMXMXMXMXMXMXMXMXMXMXMXMXMXMXMXMX",
"MXMXMXMXMXMXMXMXMXMXMXMXMXMXMXMXMXMXMXmXsXb.] 3.} ' ` q q 0 V A e 8 0 c k a p [ M.,XeXmXmXMXMXMXMXMXMXMXMXMXMXMXMXMXMXMXMXMXMXMX",
"MXMXMXMXMXMXMXMXMXMXMXMXMXMXMXMXMXmXmXaXp.N c ;.0 8 0 g n A B.sXxX{.7 5 0 z M ` E >.Q.rXmXMXMXMXMXMXMXMXMXMXMXMXMXMXMXMXMXMXMXMX",
"MXMXMXMXMXMXMXMXMXMXMXMXMXMXMXMXMXmXsXv.>.( :.k.B.-X3XiXvXmXmXmXmXmXsX{.y.y.n 8 q X.} A.aXmXmXMXMXMXMXMXMXMXMXMXMXMXMXMXMXMXMXMX",
"MXMXMXMXMXMXMXMXMXMXMXMXMXMXMXMXmXbX Xd.5.X.] c.mXMXMXMXmXmXsXiX5X6XxXbXvXnXvX&X] :.Q 3.|.xXMXMXMXMXMXMXMXMXMXMXMXMXMXMXMXMXMXMX",
"MXMXMXMXMXMXMXMXMXMXMXMXMXMXMXMXmX8Xk.5.2. .l 7XvXMXMXvXrXv.i.#.] $.d. XxXmXmXvXp._ o.( W.7XmXMXMXMXMXMXMXMXMXMXMXMXMXMXMXMXMXMX",
"MXMXMXMXMXMXMXMXMXMXMXMXMXMXMXMXvX|.h.e.[ W m sXmXMXmXdXi.0 > ` o.o.m.] C xXMXmX Xl >.[ M.oXxXmXMXMXMXMXMXMXMXMXMXMXMXMXMXMXMXMX",
"MXMXMXMXMXMXMXMXMXMXMXMXMXMXMXmXaXv.M.| [ x u.cXmXmXvXx.*.& : q ` w.m.M 8 b mXmX8Xm | G.4..XiXmXMXMXMXMXMXMXMXMXMXMXMXMXMXMXMXMX",
"MXMXMXMXMXMXMXMXMXMXMXMXMXMXMXmX>Xv.R.x O.h.V jXmXmX>X] 3._ & l k X.E @ h A sXmXrXM [ G.1.W.5XbXmXMXMXMXMXMXmXMXMXMXMXMXMXMXMXMX",
"MXMXMXMXMXMXMXMXMXMXMXMXMXMXMXmX*X#X}.; 5.} 5 8XmXbX X' m.:.Q ) T +.q.o.,.v.aXbXi.d ;.5.<..X;XvXMXMXMXMXMXMXMXMXMXMXMXMXMXMXMXMX",
"MXMXMXMXMXMXMXMXMXMXMXMXMXMXMXvX=XoX'.3 | m.5 rXbX{.$.X.m.m.:.:.9 d R ` X.k.8XhX] z 4.J.%.D.;XgXmXMXMXMXMXMXMXMXMXMXMXMXMXMXMXMX",
"MXMXMXMXMXMXMXMXMXMXMXMXMXMXmXbXqX.X}.a., u @ 8XcXb c 8.`.2.Q : m ] ] ` 1 ,. XwXw : _ 4 + OXqXpXMXMXMXMXMXMXMXMXMXMXMXMXMXMXMXMX",
"MXMXMXMXMXMXMXMXMXMXMXMXMXMXmXpXyX.X=.N f x *  XjXm u Y.H.q.9   w N.N.w & ` v.wXm X 9 $.r oXtXpXmXMXMXMXMXMXMXMXMXMXMXMXMXMXMXMX",
"MXMXMXMXMXMXMXMXMXMXMXMXMXmXmXpX/.3.Z.g.d.B u z ] 7 d `.m.q.' & % * 5 o E ,.T.~.0 > p M Z.j.=XkXnXMXMXMXMXMXMXMXMXMXMXMXMXMXMXMX",
"MXMXMXMXMXMXMXMXMXMXMXMXMXMXmX-X=.<X<.^.=._ X.O   : ' `.H.+...Q o.U U o.) X.+XM   W ( j Z.F./.=XnXMXMXMXMXMXMXMXMXMXMXMXMXMXMXMX",
"MXMXMXMXMXMXMXMXMXMXMXMXMXmXbXx.oX<XH <X/.6.y < < - / Y.t.H.r.O.o.o.q.U.m.U.$X,.o %  .F Z.}.2X'.uXmXmXMXMXMXMXMXMXMXMXMXMXMXMXMX",
"MXMXMXMXMXMXMXMXMXMXMXMXMXmXhXF.yXD.Z.2X(.B y U.^ 1 T Y.t.q.t.r.8.o.7.Y.+X_._.X.7.- i Z.F.F.2X:X9XmXMXMXMXMXMXMXMXMXMXMXMXMXMXMX",
"MXMXMXMXMXMXMXMXMXMXMXMXMXmXgX:XyXD.D.<X6.f O  .W < a 9.q.q.0.0.o.+.w.m.Y.Y.r.k v O = H XXD.;XkX4XmXMXMXMXMXMXMXMXMXMXMXMXMXMXMX",
"MXMXMXMXMXMXMXMXMXMXMXMXMXmXcXqXyXD./.).1.y & , ^ d R / K s R ! ' ~ ' @.o.+...8.^ % - i OX=X=XjXuXbXMXMXMXMXMXMXMXMXMXMXMXMXMXMX",
"MXMXMXMXMXMXMXMXMXMXMXMXMXMXcXeXtXD.D.^. .4  .W @.T @.9.T a 2 1 < 1 2 J ~ 8.8.~ 7.y 1 i F.XX].jXgXbXmXMXMXMXMXMXMXMXMXMXMXMXMXMX",
"MXMXMXMXMXMXMXMXMXMXMXMXMXMXcXpXyXD.R.^.v v 1.v [ T R L K P L J J J J P / 9.~ T @.v y i Z.].'.jXgXbXMXMXMXMXMXMXMXMXMXMXMXMXMXMX",
"MXMXMXMXMXMXMXMXMXMXMXMXMXmXbXpXyXD.C.E.v 5.1.^ Q / ! T P L K J J J J J P ! R T ^ O.p u Z.Z.].fXgXmXMXMXMXMXMXMXMXMXMXMXMXMXMXMX",
"MXMXMXMXMXMXMXMXMXMXMXMXMXMXmXpXtXF.Z.P.D I. .| ..r.@.@.0.9.9./ ! ! ! ! ! ! ~ ' [ 7.v u g.C.=XjXgXbXMXMXMXMXMXMXMXMXMXMXMXMXMXMX",
"MXMXMXMXMXMXMXMXMXMXMXMXMXMXmXpXtXZ.D ^.D 6.1.O.o.Y.+...r.0./ R ! / +.q.8.+.+.2.H.2.( ( R./.2XjXzXmXMXMXMXMXMXMXMXMXMXMXMXMXMXMX",
"MXMXMXMXMXMXMXMXMXMXMXMXMXmXmXgXyX/.N (.&. .P.c E @...Y s L s a a J I Q X.o...X.w.2.| } W.a.yXjXzXmXMXMXMXMXMXMXMXMXMXMXMXMXMXMX",
"MXMXMXMXMXMXMXMXMXMXMXMXMXmXmXzXqX#XS 6. .O.K.1 Q q...L s L L L L Y T E I I ' q.X.n.5.} C.H fXgXzXmXMXMXMXMXMXMXMXMXMXMXMXMXMXMX",
"MXMXMXMXMXMXMXMXMXMXMXMXMXMXmXzXqX<X%.D | U.,.k m.m.w.q.q.q.8.7.8.8.+.8.8.@.o.K.K.5.J.%.F Z.fXkXnXMXMXMXMXMXMXMXMXMXMXMXMXMXMXMX",
"MXMXMXMXMXMXMXMXMXMXMXMXMXmXMXvXqX<Xa.N #.E.Q m.Y._.+X`.I.e.9.......+.2.m.~._.~.+Xf.>.>.F =XfXpXnXMXMXMXMXMXMXMXMXMXMXMXMXMXMXMX",
"MXMXMXMXMXMXMXMXMXMXMXMXMXMXmXbXqX1Xj.=.&.G.) m._.+X+X).U.5.[ ^ ^ W T @.m._.$X$X+XM.$.h.<.2XtXpXmXMXMXMXMXMXMXMXMXMXMXMXMXMXMXMX",
"MXMXMXMXMXMXMXMXMXMXMXMXMXMXMXbXqXD.y.Z.L.| E m._.@X).(.P.5.E.).E.t.W W :.!.+X+X+XK.| C.<.OX2XgXmXMXMXMXMXMXMXMXMXMXMXMXMXMXMXMX",
"MXMXMXMXMXMXMXMXMXMXMXMXMXMXMXmXkXs.=Xa.f.E U w.~.(.(.(.I.G.<X<X6.1.W W O.m.~.~.+Xn. .%.a.3 Z cXmXMXMXMXMXMXMXMXMXMXMXMXMXMXMXMX",
"MXMXMXMXMXMXMXMXMXMXMXMXMXMXMXmX9X;XjXb g W c 1._.(.U.U.t.t.U.6.|  .^ ^ o.q.!.~._.,.,.h.H 6 t cXbXMXMXMXMXMXMXMXMXMXMXMXMXMXMXMX",
"MXMXMXMXMXMXMXMXMXMXMXMXMXMXMXmX9X2XZ . $ W ;.2.n.!.I.G.t.2.2. . .2.O.X.O.2.n.K.m.` 4.R.t # H kXmXMXMXMXMXMXMXMXMXMXMXMXMXMXMXMX",
"MXMXMXMXMXMXMXMXMXMXMXMXMXmXMXcX*Xb . , 4 , 5.(.G.1.I.H.t.5.5.3.| O.2.2.:.2.w.n.>.4.;.f.=.3 V rXmXMXMXMXMXMXMXMXMXMXMXMXMXMXMXMX",
"MXMXMXMXMXMXMXMXMXMXMXMXMXmXmXeXZ.N %.G.j 4 &.J.(.G. .P.G.G.5.6.} x ^ 2.n.w.n.K.!.E.u -.E.R.A.>XnXMXMXMXMXMXMXMXMXMXMXMXMXMXMXMX",
"MXMXMXMXMXMXMXMXMXMXMXMXMXmXhX].h.5.7.c & 0 g.-.J.E.5.G.!.L.L.E.E.J.h.I.!.).n.E.M.M.j $.K.M.M.#XkXmXMXMXMXMXMXMXMXMXMXMXMXMXMXMX",
"MXMXMXMXMXMXMXMXMXMXMXMXMXmX3Xz.%.B x i 5 l.g.N x h.J.J.L.L.E.E.E.L.J.G.J.E.E.T.d.d.B 3 *.g.l.Q.9XbXMXMXMXMXMXMXMXMXMXMXMXMXMXMX",
"MXMXMXMXMXMXMXMXMXMXMXMXMXmXlX'.y.y.x.[.cX0XV C.%.E.{ ;.&.1.h.L.R.L.L.J.h.h.T.^.d.A oXz.C A i.C y.nXMXMXMXMXMXMXMXMXMXMXMXMXMXMX",
"MXMXMXMXMXMXMXMXMXMXMXMXMXMXmXbXxXcXbXmXmX-Xa.D x $X%.h.K. .,.&.6.6.1.6.E.$X.XE.{ g ;XbXhXaXdX-XdXmXmXMXMXMXMXMXMXMXMXMXMXMXMXMX",
"MXMXMXMXMXMXMXMXMXMXMXMXMXMXMXMXMXmXmXvXmX4Xs.x , #XJ.>._.L. .M 3.O.j n.@X@XT.W.N g -XvXmXmXmXmXMXMXMXMXMXMXMXMXMXMXMXMXMXMXMXMX",
"MXMXMXMXMXMXMXMXMXMXMXMXMXMXMXMXMXMXMXMXmX3Xs.-.@ %X^.B R.G.>.4 } M u 3.W.T.T.J.g 7 [.mXMXMXMXMXMXMXMXMXMXMXMXMXMXMXMXMXMXMXMXMX",
"MXMXMXMXMXMXMXMXMXMXMXMXMXMXMXMXMXMXMXmXmXV.b R.3 g.@X-.B E.h.f } C.h.J.T.3.J.>.g V 6XmXMXMXMXMXMXMXMXMXMXMXMXMXMXMXMXMXMXMXMXMX",
"MXMXMXMXMXMXMXMXMXMXMXMXMXMXMXMXMXMXMXMXmX6Xb k.F S %XW.&.%.J.K.B 1.).C.#.J.h.%.a.Z {.mXMXMXMXMXMXMXMXMXMXMXMXMXMXMXMXMXMXMXMXMX",
"MXMXMXMXMXMXMXMXMXMXMXMXMXMXMXMXMXMXMXMXMXmX&XS..Xh R..X^.g.&.h.{ 3.J.W.C.E.D D D.x.lXMXMXMXMXMXMXMXMXMXMXMXMXMXMXMXMXMXMXMXMXMX",
"MXMXMXMXMXMXMXMXMXMXMXMXMXMXMXMXMXMXMXMXMXmX;X XA.#.3 a.R.R.E.6.B h.E.R.^.T.; g.wXeXmXMXMXMXMXMXMXMXMXMXMXMXMXMXMXMXMXMXMXMXMXMX",
"MXMXMXMXMXMXMXMXMXMXMXMXMXMXMXMXMXMXMXMXMXmX5XN.} v f F #XC.J.d.M -.$X#X.X; ; %XoX[.mXMXMXMXMXMXMXMXMXMXMXMXMXMXMXMXMXMXMXMXMXMX",
"MXMXMXMXMXMXMXMXMXMXMXMXMXMXMXMXMXMXMXMXmXdXb.d.>.W i { #X#XC.h.E.h.3.a.$ ; B ).1X=XbXmXMXMXMXMXMXMXMXMXMXMXMXMXMXMXMXMXMXMXMXMX",
"MXMXMXMXMXMXMXMXMXMXMXMXMXMXMXMXMXMXMXMXvXx.i.m.n.W i > 5 -.W.d.M g l $.f M ;.f.f.l.-XbXMXMXMXMXMXMXMXMXMXMXMXMXMXMXMXMXMXMXMXMX",
"MXMXMXMXMXMXMXMXMXMXMXMXMXMXMXMXMXMXMXmXiXy.>.,.) v s 1 q u c B M _ _ 3.E k ..w.K.f.*.eXmXMXMXMXMXMXMXMXMXMXMXMXMXMXMXMXMXMXMXMX",
"MXMXMXMXMXMXMXMXMXMXMXMXMXMXMXMXMXMXMXmXy.] ' ' ' 9 s 1 y m.d.f > :.c 9 a Y a [ ' ,.#.|.mXMXMXMXMXMXMXMXMXMXMXMXMXMXMXMXMXMXMXMX",
"MXMXMXMXMXMXMXMXMXMXMXMXMXMXMXMXMXMXMXvXB.i.] l ` z >.l @ w A V h g = @ ` X.k _ M $.*.B.mXMXMXMXMXMXMXMXMXMXMXMXMXMXMXMXMXMXMXMX",
"MXMXMXMXMXMXMXMXMXMXMXMXMXMXMXMXMXMXMXMXmXlX6X[.B.u.z.'.-XiXiXiXiX6XiX[.x.z.i.x.V.[.3XzXMXMXMXMXMXMXMXMXMXMXMXMXMXMXMXMXMXMXMXMX",
"MXMXMXMXMXMXMXMXMXMXMXMXMXMXMXMXMXMXMXMXMXMXmXmXmXmXmXmXMXMXmXMXMXmXmXmXmXbXbXbXmXmXMXmXMXMXMXMXMXMXMXMXMXMXMXMXMXMXMXMXMXMXMXMX",
"MXMXMXMXMXMXMXMXMXMXMXMXMXMXMXMXMXMXMXMXMXMXMXmXmXmXmXmXMXMXMXMXMXmXMXMXmXmXmXMXmXmXMXMXMXMXMXMXMXMXMXMXMXMXMXMXMXMXMXMXMXMXMXMX",
"MXMXMXMXMXMXMXMXMXMXMXMXMXMXMXMXMXMXMXMXMXMXMXMXMXMXMXMXMXMXMXMXMXMXMXMXMXMXMXMXMXMXMXMXMXMXMXMXMXMXMXMXMXMXMXMXMXMXMXMXMXMXMXMX"
};
